<svg width="660" height="80" xmlns="http://www.w3.org/2000/svg" preserveAspectRatio="xMidYMid meet">
 <metadata>Created by potrace 1.16, written by Peter Selinger 2001-2019</metadata>

 <g>
  <title>background</title>
  <rect fill="none" id="canvas_background" height="82" width="662" y="-1" x="-1"/>
 </g>
 <g>
  <title>Layer 1</title>
  <g id="svg_1" fill="#000000" transform="translate(0,225) scale(0.10000000149011612,-0.10000000149011612) ">
   <path fill="#e33b33" id="svg_2" d="m407,2097.87805c-30,-54 -105,-190 -167,-303c-62,-113 -126,-229 -142,-257l-29,-53l145,0l146,0l31,55l31,55l219,0l219,0l27,-55l27,-55l142,0l142,0l-77,143c-43,78 -128,238 -191,355l-113,212l-178,0l-178,0l-54,-97zm292,-225l50,-88l-110,0l-111,0l40,73c21,39 45,83 52,96c15,29 17,27 79,-81z"/>
   <path fill="#e33b33" id="svg_3" d="m1230,1839.87805l0,-355l130,0l130,0l0,120l0,120l43,0c39,-1 52,-9 186,-120l143,-120l190,0l189,0l-83,68c-242,195 -338,275 -337,281c0,6 315,289 376,338l28,23l-188,0l-188,0l-140,-125c-134,-121 -141,-125 -184,-125l-45,0l0,125l0,125l-125,0l-125,0l0,-355z"/>
   <path fill="#e33b33" id="svg_4" d="m2280,2006.87805c0,-104 3,-264 7,-355l6,-167l407,0l408,0l31,32c37,38 55,87 55,153c0,62 -18,115 -49,149c-14,16 -20,28 -13,32c22,14 48,91 48,147c0,60 -16,104 -54,145c-46,52 -48,52 -461,52l-385,0l0,-188zm634,-8c22,-8 20,-41 -3,-53c-10,-6 -99,-10 -205,-10l-186,-1l0,35l0,35l189,0c104,0 196,-3 205,-6zm21,-284l0,-25l-207,-3l-208,-2l0,30l0,30l208,-2l207,-3l0,-25z"/>
   <path fill="#e33b33" id="svg_5" d="m3592,2162.87805c-11,-18 -97,-175 -192,-348c-95,-173 -175,-318 -177,-322c-2,-5 61,-8 141,-8l145,0l28,50l28,50l222,0l222,0l28,-50l28,-50l138,0c76,0 137,4 135,8c-1,5 -86,164 -188,355l-185,347l-177,0l-176,0l-20,-32zm257,-290l50,-88l-110,0c-61,0 -109,3 -107,8c25,56 102,182 108,175c5,-4 31,-47 59,-95z"/>
   <path fill="#e33b33" id="svg_6" d="m4380,1839.87805l0,-355l135,0l135,0l2,225l3,225l169,-225l168,-225l209,0l209,0l0,355l0,355l-135,0l-135,0l-2,-239l-3,-239l-175,239l-175,238l-202,1l-203,0l0,-355z"/>
   <path fill="#e33b33" id="svg_7" d="m5540,1839.87805l0,-355l130,0l130,0l0,120l0,120l43,0c40,0 52,-8 187,-120l144,-120l190,0c104,0 187,2 185,4c-2,2 -94,77 -204,166c-110,90 -204,166 -208,170c-4,3 75,80 175,170c101,90 192,172 203,182c19,18 14,18 -167,18l-186,0l-140,-125c-134,-119 -142,-125 -184,-125l-43,0l3,125l3,125l-130,0l-131,0l0,-355z"/>
  </g>
 </g>
</svg>