<?xml version="1.0" encoding="utf-8"?>
<!-- Generator: Adobe Illustrator 16.0.0, SVG Export Plug-In . SVG Version: 6.00 Build 0)  -->
<!DOCTYPE svg PUBLIC "-//W3C//DTD SVG 1.1//EN" "http://www.w3.org/Graphics/SVG/1.1/DTD/svg11.dtd">
<svg version="1.1" id="Layer_1" xmlns="http://www.w3.org/2000/svg" xmlns:xlink="http://www.w3.org/1999/xlink" x="0px" y="0px"
	 width="400px" height="240px" viewBox="0 0 400 240" enable-background="new 0 0 400 240" xml:space="preserve">
<g>
	<path fill="#1E429B" d="M42.016,86.569c-9.039,9.041-9.037,23.693,0,32.732c9.039,9.039,23.693,9.039,32.732,0
		c9.037-9.039,9.037-23.693,0-32.732C65.709,77.532,51.055,77.53,42.016,86.569z"/>
	<path fill="#75C6C8" d="M90.848,86.859c13.59,13.589,13.59,35.622,0,49.212c-13.59,13.588-35.623,13.588-49.211,0
		c-8.191-8.19-11.443-19.446-9.762-30.073c0.664,5.776,3.209,11.375,7.639,15.804c10.422,10.422,27.314,10.422,37.734,0
		c10.42-10.42,10.42-27.313,0.002-37.734c-3.875-3.874-8.645-6.307-13.645-7.299C73.369,76.032,83.381,79.394,90.848,86.859z"/>
	<g>
		<path fill="#151410" d="M135.307,128.374h-16.988l-3.977,8.106H101.23l24.164-47.193h19.158l4.336,47.193h-12.855L135.307,128.374
			z M134.74,119.182l-1.439-20.447l-0.156,0.003l-10.123,20.444H134.74z"/>
		<path fill="#151410" d="M186.656,103.436L171.48,136.48h-16.99l-2.066-33.045h11.309l0.465,25.814l0.316,0.007l10.951-25.821
			H186.656z"/>
		<path fill="#151410" d="M202.295,136.48l1.443-4.903h-0.416c-1.375,3.51-4.92,5.264-10.633,5.264c-3.133,0-5.439-0.344-6.92-1.031
			c-2.168-1.032-3.252-2.927-3.252-5.682c0-1.169,0.119-2.338,0.359-3.51c0.824-3.855,2.424-6.591,4.795-8.21
			c2.164-1.479,5.275-2.222,9.334-2.222c2.438,0,4.156,0.154,5.156,0.467c1.887,0.549,2.92,1.636,3.092,3.25l0.514-0.008
			l1.174-5.203c0.205-0.967,0.309-1.773,0.309-2.43c0-1.723-1.377-2.578-4.133-2.578c-2.961,0-4.715,1.186-5.266,3.56h-10.793
			c1-4.544,3.221-7.519,6.662-8.933c2.066-0.826,5.646-1.241,10.74-1.241c4.959,0,8.383,0.431,10.275,1.295
			c2.271,1.065,3.408,3.151,3.408,6.247c0,1.512-0.207,3.254-0.619,5.215l-4.441,20.652L202.295,136.48L202.295,136.48z
			 M199.246,122.8c-3.135,0-4.959,1.17-5.473,3.51c-0.035,0.342-0.053,0.672-0.053,0.977c0,1.725,1.342,2.587,4.025,2.587
			c2.139,0,3.584-0.174,4.34-0.521c1.273-0.546,2.102-1.719,2.477-3.508c0.035-0.208,0.055-0.465,0.055-0.777
			c0-1.064-0.688-1.754-2.066-2.063C201.965,122.868,200.861,122.8,199.246,122.8z"/>
		<path fill="#151410" d="M225.771,103.436h10.826l-1.328,6.144h0.465c1.203-2.375,2.717-4.081,4.543-5.115
			c1.686-0.924,3.924-1.394,6.715-1.394c5.85,0,8.775,2.344,8.775,7.024c0,0.967-0.135,2.154-0.414,3.563l-4.852,22.823H239.68
			l4.379-20.345c0.129-0.79,0.197-1.443,0.197-1.959c0-1.861-1.248-2.789-3.736-2.789c-2.215,0-3.891,0.617-5.031,1.854
			c-0.936,1.033-1.645,2.716-2.127,5.053l-3.84,18.186h-10.826L225.771,103.436z"/>
		<path fill="#151410" d="M290.553,112.83H280.33c0.102-1.237-0.295-2.065-1.186-2.478c-0.451-0.207-1.328-0.313-2.637-0.313
			c-2.652,0-4.336,0.191-5.059,0.572c-0.553,0.309-0.951,1-1.189,2.063c-0.07,0.38-0.102,0.724-0.102,1.036
			c0,1.167,1.736,1.787,5.215,1.857c5.334,0.137,8.914,0.531,10.742,1.185c2.441,0.898,3.662,2.703,3.662,5.424
			c0,0.966-0.154,2.149-0.465,3.563c-0.93,4.406-3.166,7.471-6.713,9.189c-2.719,1.274-6.646,1.91-11.773,1.91
			c-5.023,0-8.365-0.275-10.014-0.826c-2.895-0.929-4.34-3.047-4.34-6.351c0-1.034,0.158-2.204,0.465-3.51h10.791
			c-0.066,0.413-0.104,0.809-0.104,1.187c0,1.135,0.482,1.877,1.447,2.222c0.586,0.205,1.652,0.31,3.203,0.31
			c2.131,0,3.457-0.07,3.973-0.208c1.273-0.344,2.051-1.24,2.324-2.683c0.07-0.449,0.105-0.846,0.105-1.188
			c0-0.966-0.43-1.586-1.293-1.86c-0.551-0.135-1.805-0.205-3.768-0.205c-4.201,0-7.213-0.242-9.035-0.724
			c-3.652-0.931-5.475-2.874-5.475-5.837c0-0.995,0.137-2.097,0.412-3.302c1-4.754,3.221-7.866,6.66-9.349
			c2.205-0.961,6.146-1.447,11.826-1.447c3.926,0,6.799,0.278,8.623,0.83c2.994,0.895,4.49,2.683,4.49,5.368
			c0,0.481-0.084,1.138-0.258,1.963L290.553,112.83z"/>
		<path fill="#151410" d="M311.758,136.48l1.447-4.903h-0.416c-1.375,3.51-4.922,5.264-10.635,5.264
			c-3.133,0-5.439-0.344-6.92-1.031c-2.17-1.032-3.252-2.927-3.252-5.682c0-1.169,0.121-2.338,0.359-3.51
			c0.826-3.855,2.424-6.591,4.795-8.21c2.166-1.479,5.277-2.222,9.332-2.222c2.441,0,4.158,0.154,5.158,0.467
			c1.889,0.549,2.92,1.636,3.092,3.25l0.516-0.008l1.174-5.203c0.205-0.967,0.307-1.773,0.307-2.43c0-1.723-1.377-2.578-4.131-2.578
			c-2.961,0-4.717,1.186-5.266,3.56h-10.793c0.998-4.544,3.219-7.519,6.66-8.933c2.066-0.826,5.646-1.241,10.74-1.241
			c4.955,0,8.383,0.431,10.275,1.295c2.27,1.065,3.408,3.151,3.408,6.247c0,1.512-0.207,3.254-0.619,5.215l-4.439,20.652
			L311.758,136.48L311.758,136.48z M308.713,122.8c-3.133,0-4.961,1.17-5.477,3.51c-0.031,0.342-0.051,0.672-0.051,0.977
			c0,1.725,1.344,2.587,4.027,2.587c2.137,0,3.582-0.174,4.34-0.521c1.27-0.546,2.098-1.719,2.477-3.508
			c0.037-0.208,0.053-0.465,0.053-0.777c0-1.064-0.689-1.754-2.066-2.063C311.428,122.868,310.328,122.8,308.713,122.8z"/>
		<path fill="#151410" d="M362.447,112.83h-10.225c0.104-1.237-0.295-2.065-1.191-2.478c-0.445-0.207-1.324-0.313-2.629-0.313
			c-2.652,0-4.338,0.191-5.061,0.572c-0.553,0.309-0.949,1-1.188,2.063c-0.072,0.38-0.105,0.724-0.105,1.036
			c0,1.167,1.738,1.787,5.215,1.857c5.336,0.137,8.918,0.531,10.74,1.185c2.443,0.898,3.666,2.703,3.666,5.424
			c0,0.966-0.154,2.149-0.465,3.563c-0.928,4.406-3.166,7.471-6.713,9.189c-2.717,1.274-6.641,1.91-11.773,1.91
			c-5.023,0-8.363-0.275-10.014-0.826c-2.893-0.929-4.336-3.047-4.336-6.351c0-1.034,0.152-2.204,0.465-3.51h10.791
			c-0.07,0.413-0.104,0.809-0.104,1.187c0,1.135,0.479,1.877,1.443,2.222c0.586,0.205,1.652,0.31,3.201,0.31
			c2.135,0,3.459-0.07,3.977-0.208c1.273-0.344,2.047-1.24,2.326-2.683c0.064-0.449,0.102-0.846,0.102-1.188
			c0-0.966-0.432-1.586-1.291-1.86c-0.553-0.135-1.811-0.205-3.77-0.205c-4.201,0-7.211-0.242-9.037-0.724
			c-3.648-0.931-5.473-2.874-5.473-5.837c0-0.995,0.137-2.097,0.414-3.302c1-4.754,3.215-7.866,6.658-9.349
			c2.205-0.961,6.145-1.447,11.824-1.447c3.924,0,6.799,0.278,8.623,0.83c2.996,0.895,4.494,2.683,4.494,5.368
			c0,0.481-0.088,1.138-0.258,1.963L362.447,112.83z"/>
	</g>
	<path fill="#151410" d="M365.744,104.212c-1.09,0-1.984-0.336-2.688-1.015c-0.705-0.67-1.057-1.554-1.057-2.637
		c0-0.3,0.037-0.624,0.111-0.968c0.264-1.28,0.939-2.373,2.018-3.275c1.084-0.902,2.275-1.354,3.584-1.354
		c1.082,0,1.975,0.341,2.68,1.02c0.701,0.679,1.053,1.563,1.053,2.633c0,0.347-0.027,0.672-0.088,0.977
		c-0.273,1.266-0.953,2.358-2.041,3.257C368.227,103.757,367.039,104.212,365.744,104.212z M365.963,103.157
		c1.004,0,1.924-0.35,2.766-1.047c0.844-0.695,1.369-1.535,1.574-2.518c0.045-0.232,0.07-0.478,0.07-0.737
		c0-0.835-0.275-1.521-0.816-2.046c-0.545-0.525-1.236-0.792-2.07-0.792c-1.01,0-1.93,0.35-2.76,1.045
		c-0.828,0.698-1.35,1.538-1.564,2.53c-0.057,0.263-0.086,0.513-0.086,0.747c0,0.841,0.27,1.521,0.809,2.04
		C364.426,102.897,365.119,103.157,365.963,103.157z M367.68,100.001l0.727,2.006h-1.131l-0.645-1.95h-0.887l-0.418,1.95h-1.004
		l1.018-4.758h2.375c0.484,0,0.84,0.047,1.061,0.141c0.352,0.146,0.529,0.425,0.529,0.842c0,0.133-0.018,0.291-0.057,0.477
		C369.078,99.507,368.555,99.939,367.68,100.001z M365.9,99.293h1.396c0.299,0,0.521-0.05,0.672-0.146
		c0.148-0.102,0.246-0.289,0.295-0.568c0.02-0.047,0.029-0.094,0.029-0.14c0-0.185-0.107-0.308-0.322-0.371
		c-0.135-0.034-0.344-0.055-0.637-0.055h-1.15L365.9,99.293z"/>
	<g>
		<path fill="#1E429B" d="M241.994,150.317c-0.586-0.574-1.473-0.864-2.664-0.864c-0.668,0-1.26,0.077-1.771,0.235
			c-0.514,0.156-0.961,0.391-1.344,0.702c-0.76,0.632-1.191,1.521-1.289,2.664c-0.068,0.755,0.037,1.405,0.311,1.952
			c0.137,0.276,0.354,0.565,0.639,0.869c0.289,0.301,0.666,0.629,1.127,0.975l0.119,0.096c0.936,0.74,1.379,1.402,1.328,1.982
			c-0.041,0.464-0.186,0.811-0.436,1.045c-0.248,0.234-0.605,0.354-1.068,0.354c-0.494,0-0.842-0.14-1.047-0.415
			c-0.205-0.273-0.279-0.711-0.229-1.317l0.043-0.478c0.012-0.113,0.018-0.193,0.021-0.236l0.01-0.131l-2.43-0.008l-0.119,0.608
			l-0.08,0.577c-0.104,1.174,0.141,2.054,0.736,2.641c0.352,0.346,0.826,0.586,1.416,0.73l-0.5,1.628h2.498l0.477-1.565
			c0.846-0.144,1.559-0.461,2.127-0.963c0.797-0.7,1.25-1.676,1.361-2.928c0.061-0.674-0.068-1.295-0.379-1.865
			c-0.313-0.566-0.834-1.133-1.568-1.692l-0.496-0.354c-0.813-0.596-1.189-1.201-1.137-1.811c0.035-0.397,0.174-0.705,0.412-0.927
			c0.242-0.222,0.543-0.333,0.908-0.333c0.533,0,0.887,0.137,1.057,0.406c0.184,0.271,0.242,0.783,0.176,1.537l-0.031,0.353h2.475
			l0.053-0.588l0.031-0.374C242.826,151.729,242.582,150.895,241.994,150.317z"/>
		<path fill="#1E429B" d="M282.836,150.317c-0.586-0.574-1.475-0.867-2.664-0.867c-0.668,0-1.26,0.08-1.77,0.236
			c-0.514,0.158-0.963,0.393-1.346,0.704c-0.76,0.632-1.189,1.521-1.289,2.664c-0.066,0.755,0.037,1.405,0.311,1.952
			c0.139,0.276,0.354,0.565,0.645,0.869c0.283,0.301,0.66,0.629,1.123,0.975l0.119,0.096c0.934,0.74,1.377,1.398,1.326,1.982
			c-0.039,0.461-0.186,0.811-0.436,1.045c-0.248,0.234-0.604,0.354-1.068,0.354c-0.49,0-0.842-0.14-1.047-0.415
			c-0.205-0.273-0.279-0.711-0.227-1.317l0.041-0.478c0.01-0.113,0.016-0.193,0.02-0.238l0.014-0.129l-2.432-0.008l-0.117,0.608
			l-0.082,0.577c-0.104,1.171,0.145,2.054,0.736,2.641c0.352,0.346,0.826,0.586,1.416,0.73l-0.5,1.628h2.498l0.475-1.565
			c0.85-0.144,1.563-0.461,2.131-0.963c0.797-0.701,1.25-1.676,1.359-2.929c0.059-0.675-0.068-1.294-0.377-1.864
			c-0.311-0.566-0.834-1.133-1.572-1.695l-0.492-0.352c-0.813-0.596-1.193-1.201-1.141-1.813c0.037-0.396,0.176-0.705,0.418-0.925
			c0.238-0.222,0.541-0.333,0.904-0.333c0.537,0,0.889,0.137,1.061,0.406c0.18,0.271,0.238,0.783,0.174,1.537l-0.033,0.353h2.477
			l0.051-0.588l0.033-0.374C283.668,151.729,283.424,150.895,282.836,150.317z"/>
		<polygon fill="#1E429B" points="136.477,162.099 133.359,162.099 138.246,145.666 141.361,145.666 		"/>
		<polygon fill="#1E429B" points="141.91,143.831 138.795,143.831 139.525,141.365 142.643,141.365 		"/>
		<path fill="#1E429B" d="M147.244,166.099l0.666-2.102l0.096,0.01l0.48,0.034c0.426,0,0.754-0.124,0.984-0.366
			c0.229-0.249,0.365-0.634,0.41-1.16l0.037-0.759l0.002-0.138l0.191-11.762h2.861l-0.633,8.922l4.188-8.922h3.041l-7.213,13.51
			c-0.658,1.224-1.23,2.016-1.721,2.37c-0.492,0.354-1.146,0.534-1.959,0.534c-0.121,0-0.24,0-0.354,0
			c-0.119-0.021-0.209-0.037-0.264-0.044L147.244,166.099z"/>
		<path fill="#1E429B" d="M163.898,158.034l2.678-0.002c-0.063,0.725-0.234,1.365-0.516,1.926c-0.281,0.559-0.645,1.035-1.084,1.434
			c-0.809,0.748-1.896,1.123-3.268,1.123c-1.344,0-2.32-0.303-2.928-0.896c-0.609-0.599-0.859-1.512-0.75-2.735
			c0.014-0.177,0.031-0.356,0.045-0.535c0.035-0.161,0.061-0.284,0.074-0.372c0.018-0.164,0.039-0.323,0.07-0.476
			c0.031-0.155,0.08-0.352,0.143-0.593c0.23-1.063,0.463-1.973,0.707-2.74c0.24-0.766,0.482-1.38,0.725-1.84
			c0.516-1.018,1.139-1.752,1.867-2.201c0.729-0.447,1.674-0.674,2.84-0.674c1.313,0,2.244,0.275,2.799,0.824
			c0.551,0.549,0.773,1.413,0.672,2.597c-0.041,0.434-0.121,0.94-0.252,1.522s-0.307,1.209-0.529,1.889h-5.836
			c-0.063,0.198-0.152,0.539-0.273,1.024c-0.053,0.183-0.1,0.364-0.145,0.54c-0.104,0.45-0.168,0.803-0.189,1.059
			c-0.045,0.504,0.037,0.881,0.238,1.131c0.205,0.25,0.533,0.374,0.992,0.374c0.49,0,0.891-0.19,1.199-0.57
			C163.488,159.461,163.727,158.858,163.898,158.034z M164.928,154.362c0.041-0.15,0.084-0.318,0.131-0.505
			c0.045-0.186,0.072-0.321,0.088-0.406l0.113-0.686c0.037-0.421-0.037-0.735-0.229-0.942c-0.189-0.209-0.486-0.311-0.895-0.311
			c-0.551,0-0.992,0.207-1.328,0.62c-0.338,0.415-0.648,1.159-0.934,2.23L164.928,154.362z"/>
		<path fill="#1E429B" d="M173.676,149.856l-0.652,1.943h0.066c0.4-0.773,0.873-1.354,1.406-1.738
			c0.533-0.383,1.152-0.576,1.859-0.576h0.291h0.189l-0.906,3.169l-0.396-0.032l-0.395-0.009c-0.756,0-1.346,0.169-1.77,0.511
			c-0.422,0.344-0.76,0.92-1.01,1.738l-2.174,7.236h-2.871l3.705-12.241L173.676,149.856L173.676,149.856z"/>
		<path fill="#1E429B" d="M174.557,162.099l3.686-12.241h2.869l-3.684,12.241H174.557z M178.764,148.151l0.717-2.445h2.895
			l-0.74,2.445H178.764z"/>
		<path fill="#1E429B" d="M182.438,162.096l-2.857,0.003l3.684-12.241h2.646l-0.33,1.044c0.535-0.467,1.059-0.819,1.568-1.059
			c0.51-0.24,1.023-0.357,1.535-0.357c0.764,0,1.342,0.201,1.73,0.602c0.391,0.402,0.555,0.974,0.486,1.714
			c-0.004,0.073-0.016,0.155-0.029,0.251c-0.018,0.096-0.041,0.199-0.072,0.313c-0.043,0.246-0.125,0.553-0.254,0.93l-2.633,8.805
			h-2.869l2.563-8.551l0.172-0.617l0.063-0.338c0.025-0.316-0.035-0.566-0.191-0.758c-0.164-0.182-0.404-0.27-0.725-0.27
			c-0.465,0-0.854,0.174-1.164,0.52c-0.314,0.344-0.588,0.916-0.83,1.712L182.438,162.096z"/>
		<path fill="#1E429B" d="M190.023,162.099l3.684-12.241h2.873l-3.686,12.241H190.023z M194.234,148.151l0.715-2.445h2.891
			l-0.738,2.445H194.234z"/>
		<path fill="#1E429B" d="M197.906,162.093l-2.857,0.006l3.682-12.241h2.646l-0.328,1.044c0.535-0.467,1.059-0.819,1.566-1.059
			c0.512-0.24,1.023-0.357,1.539-0.357c0.764,0,1.338,0.199,1.729,0.602s0.551,0.974,0.486,1.714
			c-0.006,0.071-0.018,0.155-0.031,0.249c-0.018,0.098-0.041,0.201-0.072,0.314c-0.041,0.246-0.125,0.553-0.252,0.93l-2.633,8.804
			h-2.871l2.564-8.55l0.17-0.619l0.063-0.338c0.027-0.314-0.035-0.564-0.191-0.76c-0.164-0.178-0.402-0.266-0.725-0.266
			c-0.465,0-0.854,0.173-1.164,0.516c-0.311,0.348-0.586,0.919-0.83,1.715L197.906,162.093z"/>
		<path fill="#1E429B" d="M218.213,161.138c-0.383,0.447-0.793,0.783-1.232,1.002c-0.443,0.223-0.92,0.33-1.436,0.33
			c-0.982,0-1.725-0.287-2.221-0.861c-0.496-0.576-0.699-1.387-0.607-2.432c0.1-1.131,0.475-2.033,1.127-2.707
			c0.65-0.676,1.631-1.167,2.934-1.471l0.385-0.084c2.066-0.486,3.146-1.229,3.236-2.229c0.033-0.364-0.055-0.652-0.26-0.86
			c-0.201-0.208-0.504-0.313-0.91-0.313c-0.516,0-0.926,0.142-1.229,0.426c-0.303,0.281-0.549,0.756-0.734,1.42h-2.764
			c0.301-1.313,0.863-2.293,1.686-2.937c0.826-0.646,1.918-0.969,3.283-0.969c1.279,0,2.248,0.259,2.908,0.776
			c0.662,0.521,0.951,1.254,0.869,2.197c-0.008,0.096-0.016,0.187-0.023,0.279c-0.031,0.112-0.053,0.193-0.064,0.243l-0.168,0.694
			l-2.018,6.791l-0.168,0.703l-0.16,0.961H218L218.213,161.138z M219.406,156.175l-0.945,0.394
			c-1.836,0.751-2.791,1.571-2.871,2.468c-0.041,0.469,0.035,0.822,0.23,1.061c0.193,0.237,0.48,0.357,0.867,0.357
			c0.6,0,1.086-0.266,1.461-0.797C218.525,159.131,218.945,157.967,219.406,156.175z"/>
		<path fill="#1E429B" d="M222.531,162.099l4.928-16.393h2.893l-4.949,16.393H222.531z"/>
		<path fill="#1E429B" d="M227.598,162.099l3.686-12.241h2.869l-3.684,12.241H227.598z"/>
		<path fill="#1E429B" d="M247.084,162.099h-3.225l0.139-12.241h2.859l-0.576,9.026l4.131-9.026h3.043L247.084,162.099z"/>
		<path fill="#1E429B" d="M257.785,158.03h2.678c-0.063,0.727-0.234,1.368-0.516,1.928c-0.281,0.557-0.645,1.035-1.084,1.434
			c-0.809,0.748-1.896,1.123-3.268,1.123c-1.344,0-2.32-0.302-2.928-0.899c-0.607-0.596-0.859-1.509-0.75-2.731
			c0.014-0.178,0.029-0.357,0.045-0.535c0.035-0.162,0.061-0.289,0.076-0.375c0.014-0.164,0.037-0.32,0.068-0.474
			c0.031-0.155,0.08-0.351,0.143-0.592c0.229-1.063,0.463-1.974,0.707-2.74c0.24-0.767,0.482-1.382,0.725-1.842
			c0.516-1.019,1.139-1.751,1.867-2.2c0.727-0.447,1.674-0.676,2.838-0.676c1.314,0,2.246,0.277,2.799,0.826
			c0.551,0.549,0.775,1.414,0.674,2.597c-0.041,0.435-0.123,0.94-0.254,1.523c-0.129,0.58-0.305,1.208-0.527,1.886h-5.838
			c-0.063,0.199-0.15,0.541-0.271,1.023c-0.055,0.187-0.1,0.367-0.145,0.545c-0.104,0.449-0.168,0.801-0.189,1.057
			c-0.045,0.505,0.037,0.881,0.238,1.129c0.203,0.249,0.533,0.377,0.988,0.377c0.494,0,0.895-0.191,1.203-0.572
			S257.613,158.858,257.785,158.03z M258.814,154.362c0.041-0.15,0.084-0.318,0.129-0.505c0.045-0.186,0.074-0.321,0.09-0.406
			l0.113-0.686c0.037-0.421-0.037-0.737-0.229-0.942c-0.189-0.209-0.486-0.311-0.895-0.311c-0.551,0-0.992,0.207-1.33,0.619
			c-0.336,0.416-0.646,1.158-0.934,2.23H258.814z"/>
		<path fill="#1E429B" d="M267.563,149.856l-0.652,1.943h0.066c0.4-0.773,0.869-1.356,1.404-1.738
			c0.533-0.387,1.154-0.576,1.861-0.576h0.291h0.189l-0.908,3.169l-0.395-0.032l-0.395-0.012c-0.756,0-1.348,0.17-1.77,0.514
			c-0.422,0.339-0.76,0.92-1.01,1.738l-2.174,7.236h-2.871l3.705-12.241L267.563,149.856L267.563,149.856z"/>
		<path fill="#1E429B" d="M268.443,162.099l3.684-12.241h2.871l-3.684,12.241H268.443z M272.65,148.151l0.717-2.445h2.895
			l-0.74,2.445H272.65z"/>
		<path fill="#1E429B" d="M288.463,166.099l0.664-2.102l0.098,0.01l0.477,0.031c0.43,0,0.758-0.121,0.986-0.367
			s0.365-0.633,0.412-1.156l0.035-0.759v-0.138l0.195-11.762h2.859l-0.631,8.922l4.186-8.922h3.043l-7.215,13.51
			c-0.656,1.223-1.229,2.013-1.721,2.369c-0.492,0.354-1.145,0.533-1.959,0.533c-0.121,0-0.24,0-0.354,0
			c-0.121-0.02-0.207-0.037-0.264-0.042L288.463,166.099z"/>
		<path fill="#1E429B" d="M305.117,158.03h2.678c-0.064,0.727-0.234,1.368-0.516,1.928c-0.283,0.557-0.645,1.035-1.086,1.434
			c-0.809,0.748-1.896,1.123-3.27,1.123c-1.342,0-2.316-0.302-2.924-0.899c-0.609-0.596-0.859-1.509-0.75-2.731
			c0.014-0.178,0.027-0.357,0.045-0.535c0.037-0.162,0.061-0.289,0.074-0.375c0.016-0.164,0.037-0.32,0.068-0.477
			c0.031-0.152,0.08-0.348,0.145-0.589c0.227-1.063,0.465-1.974,0.705-2.74c0.242-0.767,0.482-1.382,0.725-1.842
			c0.516-1.019,1.141-1.751,1.867-2.2c0.727-0.447,1.674-0.676,2.838-0.676c1.314,0,2.248,0.277,2.799,0.826
			s0.777,1.414,0.672,2.597c-0.037,0.435-0.121,0.94-0.25,1.523c-0.129,0.58-0.305,1.208-0.531,1.886h-5.836
			c-0.059,0.199-0.15,0.541-0.273,1.023c-0.049,0.187-0.098,0.367-0.143,0.545c-0.102,0.449-0.166,0.801-0.188,1.057
			c-0.045,0.505,0.035,0.881,0.238,1.129c0.203,0.249,0.533,0.377,0.99,0.377c0.492,0,0.893-0.191,1.201-0.572
			C304.703,159.46,304.945,158.858,305.117,158.03z M306.146,154.362c0.041-0.15,0.084-0.318,0.127-0.505
			c0.045-0.186,0.076-0.321,0.09-0.406l0.115-0.686c0.037-0.421-0.039-0.737-0.229-0.942c-0.189-0.209-0.486-0.311-0.893-0.311
			c-0.553,0-0.994,0.207-1.33,0.619c-0.338,0.416-0.648,1.158-0.934,2.23H306.146z"/>
		<path fill="#1E429B" d="M314.893,149.856l-0.65,1.943h0.064c0.402-0.777,0.871-1.356,1.404-1.738
			c0.533-0.387,1.154-0.576,1.861-0.576h0.291h0.191l-0.91,3.169l-0.393-0.035l-0.395-0.009c-0.758,0-1.348,0.17-1.77,0.514
			c-0.422,0.339-0.76,0.92-1.01,1.738l-2.176,7.236h-2.871l3.707-12.241L314.893,149.856L314.893,149.856z"/>
		<path fill="#1E429B" d="M315.773,162.099l3.684-12.241h2.869l-3.684,12.241H315.773z M319.982,148.151l0.717-2.445h2.891
			l-0.738,2.445H319.982z"/>
		<path fill="#1E429B" d="M148.107,150.317c-0.586-0.574-1.475-0.864-2.664-0.864c-0.668,0-1.26,0.077-1.771,0.237
			c-0.514,0.154-0.961,0.389-1.344,0.7c-0.76,0.632-1.191,1.521-1.291,2.664c-0.066,0.755,0.037,1.405,0.313,1.952
			c0.139,0.276,0.354,0.565,0.639,0.87c0.287,0.3,0.664,0.628,1.127,0.974l0.119,0.096c0.936,0.74,1.379,1.402,1.328,1.983
			c-0.041,0.463-0.186,0.81-0.434,1.046c-0.25,0.232-0.607,0.353-1.07,0.353c-0.494,0-0.842-0.14-1.047-0.411
			c-0.205-0.277-0.279-0.715-0.229-1.318l0.043-0.48c0.012-0.113,0.018-0.192,0.021-0.235l0.01-0.131l-2.43-0.009l-0.117,0.609
			l-0.082,0.576c-0.104,1.174,0.141,2.054,0.736,2.641c0.352,0.346,0.826,0.588,1.416,0.73l-0.5,1.628h2.498l0.475-1.565
			c0.85-0.144,1.561-0.461,2.129-0.963c0.797-0.7,1.25-1.674,1.361-2.926c0.061-0.676-0.068-1.296-0.379-1.865
			c-0.311-0.568-0.832-1.134-1.568-1.693l-0.494-0.354c-0.813-0.596-1.191-1.201-1.139-1.812c0.035-0.398,0.172-0.706,0.412-0.927
			c0.24-0.222,0.545-0.333,0.908-0.333c0.535,0,0.889,0.136,1.057,0.405c0.184,0.272,0.244,0.785,0.178,1.538l-0.031,0.354h2.473
			l0.053-0.588l0.031-0.374C148.939,151.729,148.695,150.895,148.107,150.317z"/>
	</g>
</g>
</svg>
