<?xml version="1.0" standalone="no"?>
<!DOCTYPE svg PUBLIC "-//W3C//DTD SVG 20010904//EN"
 "http://www.w3.org/TR/2001/REC-SVG-20010904/DTD/svg10.dtd">
<svg version="1.0" xmlns="http://www.w3.org/2000/svg"
 width="400.000000pt" height="222.000000pt" viewBox="0 0 400.000000 222.000000"
 preserveAspectRatio="xMidYMid meet">

<g transform="translate(0.000000,222.000000) scale(0.100000,-0.100000)"
fill="#000000" stroke="none">
<path d="M10 1190 l0 -260 300 0 300 0 0 35 0 35 -260 0 -260 0 0 70 0 70 165
0 165 0 0 40 0 40 -165 0 -165 0 0 80 0 80 260 0 260 0 0 35 0 35 -300 0 -300
0 0 -260z"/>
<path d="M690 1185 l0 -265 248 0 c136 0 271 3 300 6 l52 7 0 143 0 144 -170
0 -170 0 0 -40 0 -40 129 0 129 0 -4 -67 -3 -68 -216 -3 -215 -2 2 187 3 188
258 3 257 2 0 35 0 35 -300 0 -300 0 0 -265z"/>
<path d="M1360 1190 l0 -260 300 0 300 0 0 260 0 260 -42 0 -43 0 3 -225 3
-225 -221 0 -220 0 0 225 0 225 -40 0 -40 0 0 -260z"/>
<path d="M1530 1415 c0 -35 0 -35 45 -35 45 0 45 0 45 35 0 35 0 35 -45 35
-45 0 -45 0 -45 -35z"/>
<path d="M1690 1415 c0 -35 0 -35 45 -35 45 0 45 0 45 35 0 35 0 35 -45 35
-45 0 -45 0 -45 -35z"/>
<path d="M2038 1260 l3 -190 34 0 c33 0 35 -2 35 -35 0 -34 1 -35 40 -35 39 0
40 -1 40 -35 l0 -35 150 0 150 0 0 35 c0 34 1 35 40 35 39 0 40 1 40 35 0 33
2 35 35 35 l35 0 0 190 0 190 -40 0 -40 0 0 -150 0 -150 -40 0 c-39 0 -40 -1
-40 -35 0 -34 -1 -35 -40 -35 -39 0 -40 -1 -40 -35 l0 -35 -60 0 -60 0 0 35
c0 34 -1 35 -40 35 -39 0 -40 1 -40 35 0 34 -1 35 -40 35 l-40 0 0 150 0 150
-42 0 -43 0 3 -190z"/>
<path d="M2710 1190 l0 -260 305 0 305 0 0 35 0 35 -260 0 -260 0 0 75 0 75
260 0 260 0 -1 150 0 150 -305 0 -304 0 0 -260z m520 115 l0 -75 -215 0 -215
0 0 75 0 75 215 0 215 0 0 -75z"/>
<path d="M3380 1190 l0 -260 45 0 45 0 0 225 0 225 213 -2 212 -3 3 -222 2
-223 45 0 45 0 0 260 0 260 -305 0 -305 0 0 -260z"/>
<path d="M2165 847 c-57 -26 -73 -109 -31 -152 31 -31 69 -40 113 -27 19 6 41
8 49 5 11 -4 14 5 14 41 l0 46 -51 0 c-27 0 -48 -4 -45 -8 3 -5 19 -7 36 -4
25 3 30 1 30 -15 0 -43 -64 -68 -110 -43 -27 14 -41 64 -28 100 18 53 75 66
122 29 33 -26 48 -17 20 12 -26 26 -81 33 -119 16z"/>
<path d="M3166 846 c12 -30 84 -25 84 6 0 9 -3 9 -12 0 -15 -15 -58 -16 -58
-2 0 6 -4 10 -10 10 -5 0 -7 -6 -4 -14z"/>
<path d="M3788 849 c-56 -21 -46 -74 16 -89 66 -17 86 -28 86 -49 0 -36 -77
-44 -111 -10 -22 22 -35 19 -25 -6 3 -9 19 -21 36 -26 16 -6 27 -15 24 -20 -3
-5 2 -9 10 -9 24 0 19 -18 -6 -23 -20 -4 -20 -4 4 -6 31 -1 45 14 29 33 -8 9
-2 15 24 25 35 12 50 37 39 65 -4 10 -31 23 -66 33 -33 9 -62 23 -65 30 -15
39 66 60 89 23 13 -20 38 -28 38 -12 0 33 -76 58 -122 41z"/>
<path d="M20 760 l0 -90 78 2 77 2 -67 3 -68 4 0 34 0 35 60 0 c33 0 60 4 60
10 0 6 -27 10 -61 10 l-60 0 3 33 c3 32 3 32 68 38 l65 6 -77 1 -78 2 0 -90z"/>
<path d="M200 760 c0 -53 4 -90 10 -90 6 0 10 37 10 90 0 53 -4 90 -10 90 -6
0 -10 -37 -10 -90z"/>
<path d="M434 758 c1 -55 5 -93 11 -93 6 0 12 11 13 25 6 45 21 47 58 6 45
-49 57 -38 15 14 l-32 40 28 25 c15 13 23 25 16 25 -7 0 -28 -14 -48 -31 -19
-17 -35 -27 -36 -23 0 5 0 30 1 57 1 34 -2 47 -13 47 -11 0 -13 -19 -13 -92z"/>
<path d="M1130 840 c0 -5 5 -10 10 -10 6 0 10 5 10 10 0 6 -4 10 -10 10 -5 0
-10 -4 -10 -10z"/>
<path d="M1200 760 c0 -53 4 -90 10 -90 6 0 10 11 10 25 0 41 26 41 65 -1 46
-49 56 -37 14 16 l-34 42 30 24 c17 13 24 24 16 24 -7 0 -31 -14 -52 -31 l-39
-31 0 56 c0 31 -4 56 -10 56 -6 0 -10 -37 -10 -90z"/>
<path d="M1450 760 l0 -90 68 0 c40 0 73 5 80 12 17 17 15 65 -3 72 -14 5 -14
8 1 31 16 24 16 27 -1 45 -14 16 -31 20 -82 20 l-63 0 0 -90z m116 66 c31 -24
7 -50 -50 -54 -45 -3 -46 -2 -46 26 0 16 3 32 7 35 12 12 69 7 89 -7z m21 -92
c12 -31 -11 -49 -66 -52 l-51 -3 0 35 0 36 55 0 c42 0 57 -4 62 -16z"/>
<path d="M1650 840 c0 -5 7 -10 15 -10 8 0 15 5 15 10 0 6 -7 10 -15 10 -8 0
-15 -4 -15 -10z"/>
<path d="M1720 760 c0 -53 4 -90 10 -90 6 0 10 37 10 90 0 53 -4 90 -10 90 -6
0 -10 -37 -10 -90z"/>
<path d="M1960 840 c0 -5 7 -10 15 -10 8 0 15 5 15 10 0 6 -7 10 -15 10 -8 0
-15 -4 -15 -10z"/>
<path d="M2370 835 c0 -9 5 -15 11 -13 6 2 11 8 11 13 0 5 -5 11 -11 13 -6 2
-11 -4 -11 -13z"/>
<path d="M2430 835 c0 -8 5 -15 10 -15 6 0 10 7 10 15 0 8 -4 15 -10 15 -5 0
-10 -7 -10 -15z"/>
<path d="M3010 760 c0 -53 4 -90 10 -90 6 0 10 37 10 90 0 53 -4 90 -10 90 -6
0 -10 -37 -10 -90z"/>
<path d="M3080 840 c0 -5 5 -10 10 -10 6 0 10 5 10 10 0 6 -4 10 -10 10 -5 0
-10 -4 -10 -10z"/>
<path d="M3320 840 c0 -5 5 -10 10 -10 6 0 10 5 10 10 0 6 -4 10 -10 10 -5 0
-10 -4 -10 -10z"/>
<path d="M3495 768 c-51 -113 -49 -109 -32 -103 8 4 19 17 25 31 10 21 18 24
62 24 45 0 50 -3 56 -25 3 -14 12 -25 20 -25 19 0 19 0 -23 96 -25 55 -43 84
-54 84 -11 0 -29 -29 -54 -82z m76 17 l17 -45 -40 0 c-34 0 -39 3 -33 18 4 9
12 29 17 45 5 15 13 27 17 27 3 0 13 -20 22 -45z"/>
<path d="M600 821 c0 -11 -6 -22 -12 -25 -10 -5 -10 -7 0 -12 7 -3 12 -25 12
-55 0 -42 3 -51 23 -58 12 -5 26 -6 31 -3 5 3 0 9 -12 13 -18 7 -22 16 -22 53
0 36 4 45 23 51 l22 8 -22 4 c-15 3 -23 12 -23 24 0 10 -4 19 -10 19 -5 0 -10
-9 -10 -19z"/>
<path d="M280 780 c-29 -29 -26 -74 6 -99 32 -25 61 -27 92 -5 30 21 28 40 -3
20 -31 -20 -59 -20 -79 0 -27 27 -18 34 44 34 65 0 72 8 44 48 -20 29 -76 30
-104 2z m82 -7 c28 -25 22 -33 -25 -33 -53 0 -62 8 -40 32 20 22 41 23 65 1z"/>
<path d="M690 735 c0 -75 17 -89 22 -18 3 42 7 50 33 63 24 11 26 15 12 18
-10 2 -24 -2 -32 -8 -11 -9 -15 -9 -15 -1 0 6 -4 11 -10 11 -6 0 -10 -28 -10
-65z"/>
<path d="M797 782 c-22 -24 -22 -85 -1 -103 23 -19 90 -17 109 2 22 22 22 75
0 99 -24 26 -86 27 -108 2z m85 -9 c20 -18 24 -63 6 -81 -7 -7 -24 -12 -38
-12 -33 0 -50 17 -50 49 0 28 26 61 48 61 9 0 24 -7 34 -17z"/>
<path d="M960 733 c0 -35 4 -63 10 -63 6 0 10 20 10 43 0 30 6 49 18 60 41 38
77 5 70 -64 -2 -27 0 -39 9 -39 16 0 18 82 3 111 -9 16 -20 19 -65 17 l-55 -2
0 -63z"/>
<path d="M1130 735 c0 -37 4 -65 10 -65 6 0 10 28 10 65 0 37 -4 65 -10 65 -6
0 -10 -28 -10 -65z"/>
<path d="M1652 733 c4 -84 20 -80 22 5 1 45 -3 62 -12 62 -10 0 -12 -17 -10
-67z"/>
<path d="M1795 776 c-23 -34 -15 -75 17 -99 24 -18 31 -19 54 -8 31 14 43 7
28 -16 -21 -33 -42 -39 -74 -21 -17 9 -30 14 -30 10 0 -34 86 -44 113 -14 13
14 17 38 17 93 l0 75 -55 2 c-48 2 -56 -1 -70 -22z m87 -3 c22 -20 23 -56 2
-77 -48 -48 -113 25 -67 76 20 22 41 23 65 1z"/>
<path d="M1965 735 c0 -45 4 -65 13 -65 8 0 12 20 12 65 0 45 -4 65 -12 65 -9
0 -13 -20 -13 -65z"/>
<path d="M2350 740 c0 -55 2 -62 25 -72 19 -8 32 -8 52 1 19 9 29 9 31 2 10
-29 22 7 22 65 0 50 -3 64 -15 64 -11 0 -15 -12 -15 -49 0 -54 -15 -74 -52
-69 -21 3 -23 9 -26 61 -4 76 -22 74 -22 -3z"/>
<path d="M2510 792 c0 -5 11 -35 25 -66 18 -40 30 -56 41 -54 15 3 69 117 60
126 -10 10 -24 -10 -36 -53 -7 -25 -16 -48 -21 -50 -4 -3 -16 18 -27 47 -17
46 -42 76 -42 50z"/>
<path d="M2680 773 c-52 -67 36 -148 101 -93 13 10 19 19 12 20 -6 0 -15 -4
-18 -10 -9 -14 -58 -13 -73 2 -27 27 -13 38 48 38 52 0 59 2 53 18 -21 58 -86
71 -123 25z m81 7 c36 -20 23 -40 -26 -40 -48 0 -62 19 -27 39 22 13 29 13 53
1z"/>
<path d="M2840 735 c0 -37 4 -65 10 -65 6 0 10 22 10 50 0 39 4 51 20 60 12 6
30 8 40 5 17 -5 20 -15 20 -61 0 -30 5 -54 10 -54 6 0 10 26 10 59 0 44 -4 60
-16 65 -25 10 -59 7 -72 -6 -9 -9 -12 -9 -12 0 0 7 -4 12 -10 12 -6 0 -10 -28
-10 -65z"/>
<path d="M3080 735 c0 -37 4 -65 10 -65 6 0 10 28 10 65 0 37 -4 65 -10 65 -6
0 -10 -28 -10 -65z"/>
<path d="M3157 785 c-55 -54 -2 -142 69 -115 33 13 33 13 27 -11 -9 -33 -45
-44 -82 -25 -17 9 -31 12 -31 7 0 -27 74 -40 111 -21 16 9 19 22 19 93 l0 82
-49 3 c-34 2 -53 -2 -64 -13z m74 -5 c13 -7 19 -21 19 -43 0 -38 -15 -57 -45
-57 -30 0 -45 19 -45 57 0 44 32 64 71 43z"/>
<path d="M3320 735 c0 -37 4 -65 10 -65 6 0 10 28 10 65 0 37 -4 65 -10 65 -6
0 -10 -28 -10 -65z"/>
<path d="M3670 680 c0 -5 9 -10 20 -10 11 0 20 5 20 10 0 6 -9 10 -20 10 -11
0 -20 -4 -20 -10z"/>
<path d="M3960 680 c0 -5 7 -10 15 -10 8 0 15 5 15 10 0 6 -7 10 -15 10 -8 0
-15 -4 -15 -10z"/>
</g>
</svg>
