<svg width="206" height="112" viewBox="0 0 206 112" fill="none" xmlns="http://www.w3.org/2000/svg">
<path d="M62.9033 66.3279C60.6953 66.3279 58.9026 65.9672 57.5254 65.2458C56.1699 64.5025 55.1862 63.4859 54.574 62.1961C53.9619 60.8844 53.6558 59.365 53.6558 57.6379V56.6214H57.3942V57.6707C57.3942 58.8512 57.5472 59.835 57.8533 60.622C58.1812 61.3872 58.7387 61.9665 59.5257 62.36C60.3346 62.7317 61.4605 62.9175 62.9033 62.9175C64.3462 62.9175 65.4611 62.7317 66.2482 62.36C67.057 61.9884 67.6254 61.4309 67.9534 60.6876C68.3032 59.9225 68.4781 58.9715 68.4781 57.8347V44.029H72.1836V57.8019C72.1836 59.4852 71.8775 60.9718 71.2654 62.2617C70.6533 63.5296 69.6586 64.5243 68.2813 65.2458C66.9259 65.9672 65.1332 66.3279 62.9033 66.3279ZM83.5252 66.3279C81.7544 66.3279 80.2022 66 78.8687 65.3442C77.5351 64.6883 76.4967 63.7264 75.7534 62.4584C75.0319 61.1904 74.6712 59.6601 74.6712 57.8675C74.6712 56.1623 75.0319 54.6757 75.7534 53.4077C76.4967 52.1397 77.5242 51.1559 78.8359 50.4564C80.1476 49.7349 81.6888 49.3742 83.4596 49.3742C85.1429 49.3742 86.6186 49.6803 87.8866 50.2924C89.1764 50.8827 90.1711 51.7571 90.8707 52.9158C91.5921 54.0526 91.9529 55.4518 91.9529 57.1132C91.9529 57.3974 91.9419 57.6707 91.9201 57.9331C91.8982 58.1735 91.8654 58.414 91.8217 58.6545H76.9339V56.6869H89.4934L88.5752 57.9003C88.5971 57.6816 88.608 57.474 88.608 57.2772C88.608 57.0586 88.608 56.84 88.608 56.6214C88.608 55.1129 88.1708 53.998 87.2963 53.2765C86.4437 52.5332 85.1429 52.1616 83.394 52.1616C81.4483 52.1616 80.0601 52.6097 79.2294 53.5061C78.3986 54.4024 77.9833 55.6922 77.9833 57.3756V58.2282C77.9833 59.9334 78.3986 61.2342 79.2294 62.1305C80.0601 63.0268 81.4593 63.475 83.4268 63.475C85.132 63.475 86.3563 63.2126 87.0996 62.688C87.8647 62.1414 88.2473 61.3872 88.2473 60.4253V60.1629H91.7889V60.4581C91.7889 61.6167 91.4282 62.6442 90.7067 63.5406C90.0072 64.415 89.0343 65.1037 87.7882 65.6065C86.564 66.0874 85.1429 66.3279 83.5252 66.3279ZM102.312 66.3279C99.6883 66.3279 97.6552 65.8251 96.2123 64.8195C94.7913 63.8138 94.0808 62.371 94.0808 60.4909V60.3925H97.6224V60.6548C97.6224 61.726 97.9721 62.4693 98.6717 62.8847C99.3932 63.2782 100.606 63.475 102.312 63.475C103.908 63.475 104.99 63.311 105.558 62.9831C106.148 62.6333 106.444 62.0977 106.444 61.3763C106.444 60.6985 106.214 60.2176 105.755 59.9334C105.318 59.6492 104.509 59.4306 103.328 59.2775L98.8685 58.6873C97.3163 58.4905 96.103 58.0533 95.2285 57.3756C94.354 56.676 93.9168 55.6376 93.9168 54.2603C93.9168 53.2984 94.201 52.4567 94.7694 51.7353C95.3378 50.992 96.1904 50.4126 97.3272 49.9973C98.464 49.5819 99.8632 49.3742 101.525 49.3742C103.186 49.3742 104.607 49.5928 105.788 50.0301C106.99 50.4673 107.908 51.1231 108.542 51.9976C109.198 52.8721 109.526 53.9542 109.526 55.2441V55.3424H106.017V55.1457C106.017 54.5117 105.886 53.9761 105.624 53.5389C105.361 53.1016 104.891 52.7737 104.214 52.5551C103.558 52.3146 102.629 52.1944 101.426 52.1944C99.9178 52.1944 98.8685 52.3693 98.2782 52.719C97.6879 53.0688 97.3928 53.6263 97.3928 54.3915C97.3928 55.0255 97.6114 55.4845 98.0487 55.7687C98.4859 56.0529 99.3057 56.2825 100.508 56.4574L104.279 56.9821C106.203 57.2225 107.624 57.6926 108.542 58.3921C109.46 59.0917 109.92 60.1192 109.92 61.4746C109.92 62.4803 109.603 63.3547 108.969 64.098C108.335 64.8195 107.449 65.3769 106.312 65.7705C105.176 66.1421 103.842 66.3279 102.312 66.3279ZM123.165 66H119.427C117.678 66 116.29 65.5737 115.262 64.7211C114.257 63.8685 113.754 62.4584 113.754 60.4909V46.1278H117.262V60.2941C117.262 61.2997 117.503 61.9775 117.984 62.3272C118.465 62.6552 119.208 62.8191 120.214 62.8191H123.165V66ZM123.165 52.6535H110.999V49.7021H123.165V52.6535ZM128.922 66H125.38V49.7021H128.922V66ZM128.922 47.8002H125.38V44.029H128.922V47.8002ZM134.825 71.5747H132.497V68.3611H135.678C136.399 68.3611 136.935 68.2408 137.284 68.0003C137.656 67.7817 137.962 67.3991 138.203 66.8526L139.219 64.6555L138.826 66.4591L130.562 49.7021H134.53L138.694 58.3594L140.301 62.2617H140.564L142.105 58.3266L145.942 49.7021H149.844L141.351 67.7708C140.913 68.7327 140.4 69.4869 139.809 70.0335C139.219 70.6019 138.52 70.9954 137.711 71.214C136.902 71.4545 135.94 71.5747 134.825 71.5747ZM159.905 66.3279C158.113 66.3279 156.528 65.9781 155.15 65.2786C153.795 64.5571 152.735 63.5624 151.969 62.2944C151.226 61.0046 150.855 59.529 150.855 57.8675C150.855 56.1623 151.226 54.6757 151.969 53.4077C152.735 52.1397 153.795 51.1559 155.15 50.4564C156.528 49.7349 158.113 49.3742 159.905 49.3742C161.742 49.3742 163.338 49.7349 164.693 50.4564C166.048 51.1559 167.098 52.1397 167.841 53.4077C168.606 54.6757 168.989 56.1623 168.989 57.8675C168.989 59.529 168.606 61.0046 167.841 62.2944C167.098 63.5624 166.048 64.5571 164.693 65.2786C163.338 65.9781 161.742 66.3279 159.905 66.3279ZM159.905 63.1798C161.895 63.1798 163.327 62.7317 164.201 61.8354C165.076 60.9172 165.513 59.5945 165.513 57.8675C165.513 56.1404 165.076 54.8178 164.201 53.8996C163.327 52.9595 161.895 52.4895 159.905 52.4895C157.938 52.4895 156.517 52.9595 155.642 53.8996C154.768 54.8178 154.331 56.1404 154.331 57.8675C154.331 59.5945 154.768 60.9172 155.642 61.8354C156.517 62.7317 157.938 63.1798 159.905 63.1798ZM188.578 66H185.037V57.146C185.037 55.6157 184.665 54.468 183.922 53.7028C183.2 52.9377 181.987 52.5551 180.282 52.5551C178.511 52.5551 177.199 53.0142 176.347 53.9324C175.516 54.8287 175.1 56.1623 175.1 57.9331L174.477 57.9658L174.313 54.7522H175.035C175.21 53.834 175.56 52.9705 176.084 52.1616C176.631 51.3308 177.374 50.6641 178.314 50.1612C179.276 49.6366 180.446 49.3742 181.823 49.3742C183.331 49.3742 184.588 49.6803 185.594 50.2924C186.6 50.9045 187.343 51.7243 187.824 52.7518C188.327 53.7793 188.578 54.9271 188.578 56.195V66ZM175.1 66H171.559V49.7021H174.805V54.8178L175.1 54.9817V66Z" fill="#0E0F0F"/>
<path fill-rule="evenodd" clip-rule="evenodd" d="M40.4908 50.0702C40.4908 45.6833 38.168 41.6228 34.3872 39.3975L15 28L15 49.5998L30.5471 58.7042L25.3167 61.9891V84L34.7178 77.6421C38.1765 75.3025 40.2492 71.3987 40.2492 67.2237C40.2492 64.0363 39.0412 61.0227 36.9516 58.7339C39.1938 56.4451 40.4865 53.3467 40.4865 50.0702H40.4908ZM32.607 74.5183L29.0933 76.8962V64.0745L33.9337 61.0354C35.5444 62.663 36.4768 64.8798 36.4768 67.228C36.4768 70.1526 35.0272 72.8822 32.6028 74.5226L32.607 74.5183ZM33.9973 56.3518L18.7723 47.4381L18.7723 34.5952L32.4714 42.6527C35.0993 44.1998 36.7142 47.0227 36.7142 50.0745C36.7142 52.4777 35.7097 54.7454 33.993 56.356L33.9973 56.3518Z" fill="#3773FE"/>
</svg>
